<?xml version="1.0" encoding="UTF-8" standalone="no"?>
<!-- Generator: Gravit.io -->
<svg xmlns="http://www.w3.org/2000/svg" xmlns:xlink="http://www.w3.org/1999/xlink" style="isolation:isolate" viewBox="0 0 32 32" width="32pt" height="32pt"><defs><clipPath id="_clipPath_UtOmDQn3AqBMPveDPPB9r8W5UnsyVvVD"><rect width="32" height="32"/></clipPath></defs><g clip-path="url(#_clipPath_UtOmDQn3AqBMPveDPPB9r8W5UnsyVvVD)"><rect width="32" height="32" style="fill:rgb(0,0,0)" fill-opacity="0"/><path d=" M 0 2.13 Q 2.12 -0.414 5.376 0.524 C 9.193 -0.989 10.805 0.851 12.032 5.021 C 15.292 7.202 16.021 7.536 18.944 10.16 C 20.897 11.913 21.234 10.985 23.04 13.372 C 24.515 15.321 24.24 15.713 26.368 16.583 C 27.769 17.157 28.845 18.449 28.928 19.474 C 30.493 19.277 31.445 21.627 32 22.043 C 30.65 22.192 30.308 21.352 28.672 21.401 C 27.158 21.446 26.33 19.414 19.712 19.474 C 19.148 20.182 18.044 20.154 17.408 19.795 C 18.23 21.898 18.982 23.298 16.896 27.182 C 14.81 31.067 16.928 28.725 17.408 31.036 C 16.376 29.35 13.966 31.22 13.312 31.358 C 12.658 31.496 12.036 31.307 11.776 32 C 12.236 29.953 13.623 31.186 14.08 30.394 C 12.434 30.163 11.848 30.487 11.52 31.036 C 12.046 29.015 13.358 30.398 14.592 29.431 C 15.826 28.463 16.708 25.45 16.64 23.649 C 16.563 21.622 15.558 19.207 13.568 19.153 C 13.844 20.965 14.503 21.684 14.336 22.365 C 13.971 23.854 12.206 25.656 11.52 27.182 C 10.858 28.654 12.716 27.83 13.056 29.109 C 11.96 27.965 11.906 28.846 10.496 29.109 C 9.086 29.373 8.84 28.552 6.912 29.431 Q 7.4 28.613 7.68 28.467 C 7.237 28.761 6.813 29.086 6.4 29.431 C 6.773 28.566 7.459 28.141 8.448 28.146 C 9.735 28.153 10.012 28.442 11.52 25.576 C 13.076 22.621 12.86 21.823 11.264 19.153 C 10.287 17.518 9.281 17.231 8.448 15.941 C 7.268 14.114 7.402 14.107 6.912 12.729 C 6.422 11.352 5.922 11.191 5.632 10.16 C 5.342 9.129 6.726 6.632 4.864 4.057 C 1.107 3.505 0.14 2.797 0.256 2.773 C 2.904 1.671 4.666 2.492 5.376 2.773 C 3.661 1.657 1.872 1.446 0 2.13 Z  M 5.824 1.809 C 5.824 1.277 6.312 0.846 6.912 0.846 C 7.512 0.846 8 1.277 8 1.809 C 8 2.341 7.512 2.773 6.912 2.773 C 6.312 2.773 5.824 2.341 5.824 1.809 Z " fill-rule="evenodd" fill="rgb(0,0,0)"/></g></svg>