<?xml version="1.0" encoding="UTF-8" standalone="no"?><!-- Generator: Gravit.io --><svg xmlns="http://www.w3.org/2000/svg" xmlns:xlink="http://www.w3.org/1999/xlink" style="isolation:isolate" viewBox="0 0 32 32" width="32pt" height="32pt"><defs><clipPath id="_clipPath_ei5bydCzpoaBYWoexiJZEhsgGgiz7Xsm"><rect width="32" height="32"/></clipPath></defs><g clip-path="url(#_clipPath_ei5bydCzpoaBYWoexiJZEhsgGgiz7Xsm)"><rect width="32" height="32" style="fill:rgb(0,0,0)" fill-opacity="0"/><path d=" M 0 2 C 1.065 1.324 2.752 1.011 5 1 C 5.625 0.272 6.248 -0.009 6.987 0 C 9.225 -0.085 10.937 0.612 12.032 2 L 12.032 5.021 L 18 11 C 18.924 11.01 19.944 11.163 20.994 12 C 21.688 12.656 22.344 13.359 23 14 C 24.192 15.164 24.445 15.43 25 15.962 C 27.563 16.02 27.996 16.441 28 18 C 28.014 18.384 27.984 18.586 28 19 C 28.359 19.008 28.556 18.996 29 19 C 30.762 19.107 32.01 20.936 32 22 C 31.324 22.017 30.964 22.001 30 22 C 22.939 21.99 24.135 19.16 20 19.153 C 19.436 19.86 19.23 20.027 18 20 C 18.438 20.953 18.484 21.016 18.989 22.066 C 19.047 23.344 18.427 24.181 17 27 C 16.359 28.266 16.437 28.008 16 29.012 C 16 29.71 17.953 28.703 18 32 C 17.438 31.266 16.914 31.038 16.046 31.007 C 14.92 30.966 13.937 31.28 13.568 31.358 C 12.914 31.496 12.26 31.307 12 32 C 12.023 30.261 13.623 30.791 14.08 30 C 12.434 29.769 12.328 30.457 12 31.007 C 11.918 28.881 12.729 28.986 14.08 29 C 14.449 29.004 14.563 29.03 15.004 29.012 C 15.656 27.719 17.061 24.6 17 23 C 16.923 20.973 15.558 19.207 13.568 19.153 C 13.844 20.965 13.98 20.766 14 22 C 14.025 23.558 12.656 25.793 11.52 27.182 C 10.858 28.654 13.034 27.721 13 30 C 11.61 29.268 11.399 29.013 11 29.012 C 9.574 29.01 8.622 28.503 6.912 30 Q 7.014 28.002 7.68 28.467 C 7.237 28.761 6.44 29.655 6.026 30 C 6.038 28.011 7.011 27.995 8 28 C 9.287 28.007 9.13 28.507 11 26 C 12.147 24.461 13.124 22.94 13 22 C 12.876 21.06 12.172 20.279 11 19 C 9.771 17.659 10 16.719 10 15 C 9.01 13.999 8.024 13.051 7.007 12.029 C 6 11 6.016 11.016 6.012 10 C 6.024 8.62 6.033 6.597 6.026 6 C 5.898 5.298 5.565 4.714 4.864 4.057 C 4.052 4.531 3.561 4.895 3 5.024 C 2.898 5.027 2.121 5.023 1.986 5.024 C 1.084 4.996 0.519 4.515 0 4 C 1.802 4.052 4.29 2.72 5 3 C 3.705 2.545 2.302 1.986 0 2 Z  M 6.987 2 C 6.987 1.448 7.438 1 7.994 1 C 8.549 1 9 1.448 9 2 C 9 2.552 8.549 3 7.994 3 C 7.438 3 6.987 2.552 6.987 2 Z " fill-rule="evenodd" fill="rgb(0,0,0)"/></g></svg>